<?xml version="1.0" encoding="UTF-8"?>
<svg version="1.1" xmlns="http://www.w3.org/2000/svg" width="512" height="512">
    <path d="M0 0 C0.75078827 0.00182281 1.50157654 0.00364563 2.27511597 0.00552368 C13.21761547 0.05027143 23.62191026 0.48515561 34.25 3.3125 C34.93191406 3.48410645 35.61382812 3.65571289 36.31640625 3.83251953 C59.00177043 9.5913495 79.40710499 20.22441888 97.25 35.3125 C98.11625 36.03695312 98.9825 36.76140625 99.875 37.5078125 C121.03072338 55.7331823 135.73708646 81.30094695 143.5 107.875 C143.86967896 109.13219849 143.86967896 109.13219849 144.24682617 110.41479492 C147.73314603 122.88625162 148.62900837 135.1829942 148.5625 148.0625 C148.56034485 148.81428528 148.5581897 149.56607056 148.55596924 150.34063721 C148.50557623 161.29165017 148.10236932 171.68094163 145.25 182.3125 C145.05664062 183.075625 144.86328125 183.83875 144.6640625 184.625 C138.70530239 207.87152092 127.94069741 228.18414067 112.25 246.3125 C111.569375 247.11558594 110.88875 247.91867188 110.1875 248.74609375 C103.35666157 256.65759217 95.543982 262.99601834 87.25 269.3125 C89.82957733 271.89207733 92.26786511 272.58297433 95.6875 273.875 C138.59967012 290.63207925 177.93834483 320.05099223 205.25 357.3125 C205.88711914 358.16642334 205.88711914 358.16642334 206.53710938 359.03759766 C213.05268015 367.77841821 218.88588547 376.82336328 224.25 386.3125 C224.6521875 387.01971191 225.054375 387.72692383 225.46875 388.45556641 C246.93242591 426.5787439 256.80058004 468.81667677 256.25 512.3125 C242.72 512.3125 229.19 512.3125 215.25 512.3125 C214.92 505.7125 214.59 499.1125 214.25 492.3125 C213.79039897 488.03524524 213.3010447 483.86077695 212.625 479.625 C212.45387695 478.54468506 212.28275391 477.46437012 212.10644531 476.35131836 C206.60935354 443.73066749 193.60522612 411.53003125 173.25 385.3125 C172.38199281 384.15132264 171.51614482 382.98852844 170.65234375 381.82421875 C166.69979947 376.53512263 162.69932579 371.46825805 157.890625 366.91796875 C156.07346213 365.13974509 154.45402763 363.2534955 152.8125 361.3125 C149.27306554 357.22370765 145.40296396 353.7646974 141.25 350.3125 C140.47269531 349.64734375 139.69539063 348.9821875 138.89453125 348.296875 C136.05722631 345.91027659 133.17277195 343.59283744 130.25 341.3125 C129.68265137 340.86777344 129.11530273 340.42304688 128.53076172 339.96484375 C102.91739617 320.18490671 72.70307656 307.9897802 41.25 301.3125 C40.43789063 301.13315918 39.62578125 300.95381836 38.7890625 300.76904297 C-13.1279011 289.76727901 -70.4158177 302.91197056 -114.92041016 330.66601562 C-119.00484026 333.37186075 -122.88116241 336.30874411 -126.75 339.3125 C-127.91117736 340.18050719 -129.07397156 341.04635518 -130.23828125 341.91015625 C-135.52737737 345.86270053 -140.59424195 349.86317421 -145.14453125 354.671875 C-146.92275491 356.48903787 -148.8090045 358.10847237 -150.75 359.75 C-154.83879235 363.28943446 -158.2978026 367.15953604 -161.75 371.3125 C-162.41515625 372.08980469 -163.0803125 372.86710937 -163.765625 373.66796875 C-166.15222341 376.50527369 -168.46966256 379.38972805 -170.75 382.3125 C-171.19472656 382.87984863 -171.63945312 383.44719727 -172.09765625 384.03173828 C-193.98642519 412.37586492 -207.30205098 446.80110495 -212.5625 482.0625 C-212.67440674 482.80371094 -212.78631348 483.54492188 -212.90161133 484.30859375 C-214.13780819 493.62107917 -214.27883314 502.88916277 -214.75 512.3125 C-228.28 512.3125 -241.81 512.3125 -255.75 512.3125 C-257.02044663 447.51972193 -232.23141838 383.87916967 -187.36181641 336.98291016 C-178.26172749 327.55200916 -169.22377478 318.24056563 -158.75 310.3125 C-158.21117187 309.89726074 -157.67234375 309.48202148 -157.1171875 309.05419922 C-135.52893958 292.45762858 -112.04907118 280.19279862 -86.75 270.3125 C-89.98932855 267.02689532 -93.2994194 263.87489028 -96.75 260.8125 C-100.18819121 257.73435536 -103.52845207 254.61882551 -106.75 251.3125 C-107.31847656 250.78914062 -107.88695312 250.26578125 -108.47265625 249.7265625 C-125.46267938 233.71608345 -136.54271907 210.85460351 -143 188.75 C-143.24645264 187.91186768 -143.49290527 187.07373535 -143.74682617 186.21020508 C-147.23328996 173.73823352 -148.12743363 161.44230703 -148.0625 148.5625 C-148.06067719 147.81171173 -148.05885437 147.06092346 -148.05697632 146.28738403 C-148.01222857 135.34488453 -147.57734439 124.94058974 -144.75 114.3125 C-144.57839355 113.63058594 -144.40678711 112.94867188 -144.22998047 112.24609375 C-138.4711505 89.56072957 -127.83808112 69.15539501 -112.75 51.3125 C-112.02554688 50.44625 -111.30109375 49.58 -110.5546875 48.6875 C-92.3293177 27.53177662 -66.76155305 12.82541354 -40.1875 5.0625 C-39.34936768 4.81604736 -38.51123535 4.56959473 -37.64770508 4.31567383 C-25.17573352 0.82921004 -12.87980703 -0.06493363 0 0 Z M-82.75 79.3125 C-102.47284214 104.08592408 -109.85398681 133.75980081 -106.4453125 165.11523438 C-102.30107187 192.11623073 -86.96859344 216.80814884 -65.72265625 233.72265625 C-40.68832205 251.76346817 -11.18755441 259.34226559 19.546875 254.625 C46.79279426 249.44647287 71.72314797 233.62484698 87.9375 211.125 C104.55270793 186.00898802 111.82103489 156.68249116 106.12060547 126.69067383 C99.84821409 98.96546799 83.58704207 74.20277398 59.76171875 58.44140625 C12.2292209 29.00496857 -45.61252232 37.87082729 -82.75 79.3125 Z " fill="#000000" transform="translate(255.75,-0.3125)"/>
</svg>
