
<svg version="1.0" xmlns="http://www.w3.org/2000/svg"width="500.000000pt" height="500.000000pt" viewBox="0 0 500.000000 500.000000" preserveAspectRatio="xMidYMid meet">
    <g transform="translate(0.000000,500.000000) scale(0.100000,-0.100000)"
    fill="#000000" stroke="none">
    <path d="M1339 3343 c-12 -13 -14 -145 -17 -743 -2 -724 -2 -727 19 -753 l20
    -27 395 0 c217 0 436 5 487 10 51 6 337 11 637 13 490 2 553 4 620 21 252 62
    369 210 358 455 -3 74 -9 106 -27 139 -29 57 -86 119 -130 141 l-35 18 31 16
    c45 24 100 92 119 150 13 38 15 73 12 142 -11 208 -125 331 -353 381 -68 15
    -159 19 -605 25 -299 4 -547 11 -575 17 -30 7 -225 11 -496 11 -404 1 -448 -1
    -460 -16z m1880 -393 c46 -24 51 -113 9 -157 -21 -22 -28 -23 -173 -23 l-152
    0 -7 58 c-4 31 -9 74 -13 95 l-6 37 162 0 c89 0 170 -4 180 -10z m-1058 -20
    c65 -13 111 -43 138 -91 19 -34 21 -53 21 -243 0 -231 -5 -256 -61 -299 -50
    -37 -100 -47 -236 -47 l-123 0 0 345 0 345 104 0 c57 0 127 -5 157 -10z m1060
    -520 c44 -12 69 -47 69 -95 0 -55 -24 -92 -68 -104 -50 -14 -329 -14 -337 0
    -6 9 10 165 20 197 5 15 262 17 316 2z"/>
    </g>
</svg>
