<svg version="1.2" xmlns="http://www.w3.org/2000/svg" viewBox="0 0 257 160" width="257" height="160">
	<title>digital-courses-Logo-svg</title>
	<style>
		.s0 { fill: #000000 } 
	</style>
	<g>
		<path fill-rule="evenodd" class="s0" d="m49.9 3.1c27.1 0 46.6 0.4 49.6 1.1 2.8 0.6 27.6 1.3 57.5 1.7 44.6 0.6 53.7 1 60.5 2.5 22.8 5 34.2 17.3 35.3 38.1 0.3 6.9 0.1 10.4-1.2 14.2-1.9 5.8-7.4 12.6-11.9 15l-3.1 1.6 3.5 1.8c4.4 2.2 10.1 8.4 13 14.1 1.8 3.3 2.4 6.5 2.7 13.9 1.1 24.5-10.6 39.3-35.8 45.5-6.7 1.7-13 1.9-62 2.1-30 0.2-58.6 0.7-63.7 1.3-5.1 0.5-27 1-48.7 1h-39.5l-2-2.7c-2.1-2.6-2.1-2.9-1.9-75.3 0.3-59.8 0.5-73 1.7-74.3 1.2-1.5 5.6-1.7 46-1.6zm124 39.9h-16.2l0.6 3.7c0.4 2.1 0.9 6.4 1.3 9.5l0.7 5.8h15.2c14.5 0 15.2-0.1 17.3-2.3 4.2-4.4 3.7-13.3-0.9-15.7-1-0.6-9.1-1-18-1zm-103.5 2h-10.4v69h12.3c13.6 0 18.6-1 23.6-4.7 5.6-4.3 6.1-6.8 6.1-29.9 0-19-0.2-20.9-2.1-24.3-2.7-4.8-7.3-7.8-13.8-9.1-3-0.5-10-1-15.7-1zm90.1 53.2c-1 3.2-2.6 18.8-2 19.7 0.8 1.4 28.7 1.4 33.7 0 4.4-1.2 6.8-4.9 6.8-10.4 0-4.8-2.5-8.3-6.9-9.5-5.4-1.5-31.1-1.3-31.6 0.2z"/>
	</g>
</svg>